<?xml version="1.0" encoding="utf-8"?>
<!-- Generator: Adobe Illustrator 27.5.0, SVG Export Plug-In . SVG Version: 6.00 Build 0)  -->
<svg version="1.1" id="_x31_" xmlns="http://www.w3.org/2000/svg" xmlns:xlink="http://www.w3.org/1999/xlink" x="0px" y="0px"
	 viewBox="0 0 450 450" style="enable-background:new 0 0 450 450;" xml:space="preserve">
<g>
	<linearGradient id="SVGID_1_" gradientUnits="userSpaceOnUse" x1="278.5185" y1="446.674" x2="177.4757" y2="41.4135">
		<stop  offset="0" style="stop-color:#F9C082"/>
		<stop  offset="1" style="stop-color:#EF6F00"/>
	</linearGradient>
	<circle style="fillRule:evenodd;clip-rule:evenodd;fill:url(#SVGID_1_);" cx="228.001" cy="244.06" r="171.465"/>
	<g>
		<path style="fill:#FFFFFF;" d="M39.518,297.246c-0.221,0-0.436-0.114-0.554-0.32c-0.175-0.306-0.07-0.695,0.236-0.87
			l220.509-126.579c0.197-0.112,0.438-0.113,0.635-0.001l145.55,83.343c0.306,0.175,0.411,0.566,0.236,0.871
			c-0.175,0.305-0.563,0.411-0.871,0.236l-145.232-83.162L39.835,297.161C39.734,297.219,39.626,297.246,39.518,297.246z"/>
	</g>
</g>
<g>
	<polygon style="fill:#D42000;" points="200.75,28.401 199.901,23.584 185.968,26.046 186.818,30.863 191.095,30.107 
		196.689,61.838 202.233,60.859 196.639,29.128 	"/>
	
		<rect x="208.663" y="28.074" transform="matrix(0.9976 -0.0697 0.0697 0.9976 -2.5436 14.837)" style="fill:#D42000;" width="5.587" height="31.627"/>
	
		<rect x="207.126" y="20.37" transform="matrix(0.9975 -0.0704 0.0704 0.9975 -1.0842 14.8454)" style="fill:#D42000;" width="5.63" height="4.85"/>
	
		<rect x="220.694" y="21.669" transform="matrix(0.9999 -0.0173 0.0173 0.9999 -0.6656 3.8748)" style="fill:#D42000;" width="5.566" height="37.431"/>
	<path style="fill:#D42000;" d="M242.035,27.559c-0.33-0.023-0.651-0.031-0.961-0.029c-4.758,0.041-7.346,3.088-7.773,9.144
		l-0.82,11.757c-0.194,2.816-0.028,5.113,0.489,6.884c0.835,2.772,3.031,4.291,6.574,4.536c0.537,0.038,1.047,0.046,1.53,0.023
		c1.736-0.083,3.121-0.558,4.151-1.42c0.627-0.526,1.209-1.389,1.749-2.606c0.533-1.217,0.901-3.255,1.102-6.12l0.115-1.677
		l-5.508-0.389l-0.194,2.78c-0.079,1.123-0.165,2.002-0.273,2.642c-0.101,0.641-0.36,1.26-0.778,1.851
		c-0.089,0.117-0.211,0.212-0.364,0.282c-0.278,0.127-0.66,0.173-1.148,0.135c-0.756-0.05-1.303-0.389-1.641-1.008
		c-0.338-0.627-0.432-2.031-0.274-4.219l0.432-6.199l2.631,0.183l7.398,0.515l0.476-6.753c0.216-3.125-0.166-5.573-1.145-7.351
		C246.816,28.746,244.9,27.76,242.035,27.559z M243.432,36.933l-0.281,4.039l-2.077-0.143l-2.422-0.166l0.266-3.896
		c0.051-0.669,0.101-1.217,0.159-1.634c0.228-1.905,0.893-2.953,1.998-3.153c0.185-0.033,0.384-0.044,0.594-0.03
		c0,0,0.007,0,0.021,0c0.842,0.058,1.369,0.476,1.591,1.245C243.504,33.966,243.554,35.212,243.432,36.933z"/>
	<path style="fill:#D42000;" d="M268.783,30.928c-1.353-0.237-2.548-0.101-3.571,0.411c-1.022,0.511-1.821,1.347-2.398,2.498
		l0.612-3.47l-5.544-0.972l-5.493,31.147l5.544,0.98l4.356-24.711c0.454-0.634,1.246-1.044,2.383-1.231
		c1.13-0.187,2.247-0.18,3.355,0.014l0.223-1.159C268.661,32.109,268.841,30.943,268.783,30.928z"/>
</g>
<g>
	<g>
		<polygon style="fillRule:evenodd;clip-rule:evenodd;fill:#968380;" points="248.294,249.455 293.119,275.179 338.426,249.214 
			338.426,249.214 338.426,247.825 335.99,247.831 293.098,223.481 250.701,248.06 248.296,248.066 248.296,249.454 		"/>
		<polygon style="fillRule:evenodd;clip-rule:evenodd;fill:#F5EEE1;" points="248.294,248.067 293.119,273.816 338.426,247.851 
			293.099,222.118 		"/>
		<polygon style="fillRule:evenodd;clip-rule:evenodd;fill:#E2CB9C;" points="255.699,248.051 293.158,269.568 331.021,247.869 
			293.142,226.366 		"/>
		<polygon style="fillRule:evenodd;clip-rule:evenodd;fill:#F5EEE1;" points="258.303,248.045 293.172,268.074 328.417,247.876 
			293.157,227.859 		"/>
	</g>
	<g>
		<polygon style="fillRule:evenodd;clip-rule:evenodd;fill:#968380;" points="294.033,275.546 338.857,301.27 384.165,275.305 
			384.164,275.304 384.164,273.915 381.728,273.922 338.837,249.572 296.439,274.151 294.034,274.157 294.034,275.545 		"/>
		<polygon style="fillRule:evenodd;clip-rule:evenodd;fill:#F5EEE1;" points="294.033,274.158 338.857,299.906 384.165,273.941 
			338.837,248.209 		"/>
		<polygon style="fillRule:evenodd;clip-rule:evenodd;fill:#FFFFFF;" points="301.438,274.141 338.897,295.658 376.759,273.96 
			338.88,252.456 		"/>
		<polygon style="fillRule:evenodd;clip-rule:evenodd;fill:#E2CB9C;" points="304.041,274.135 338.911,294.165 374.156,273.967 
			338.895,253.949 		"/>
	</g>
	<g>
		<polygon style="fillRule:evenodd;clip-rule:evenodd;fill:#968380;" points="339.771,301.637 384.596,327.36 429.903,301.395 
			429.902,301.395 429.902,300.006 427.467,300.013 384.575,275.663 342.177,300.242 339.773,300.248 339.773,301.636 		"/>
		<polygon style="fillRule:evenodd;clip-rule:evenodd;fill:#F5EEE1;" points="339.771,300.248 384.595,325.997 429.903,300.032 
			384.575,274.299 		"/>
		<polygon style="fillRule:evenodd;clip-rule:evenodd;fill:#E2CB9C;" points="347.176,300.232 384.635,321.749 422.497,300.051 
			384.618,278.547 		"/>
		<polygon style="fillRule:evenodd;clip-rule:evenodd;fill:#F5EEE1;" points="349.779,300.226 384.649,320.256 419.894,300.057 
			384.634,280.04 		"/>
	</g>
	<g>
		<polygon style="fillRule:evenodd;clip-rule:evenodd;fill:#968380;" points="383.657,328.048 338.832,353.773 293.525,327.808 
			293.526,327.807 293.526,326.418 295.961,326.425 338.853,302.074 381.25,326.653 383.656,326.66 383.656,328.048 		"/>
		<polygon style="fillRule:evenodd;clip-rule:evenodd;fill:#F5EEE1;" points="383.657,326.661 338.832,352.409 293.525,326.444 
			338.853,300.711 		"/>
		<polygon style="fillRule:evenodd;clip-rule:evenodd;fill:#FFFFFF;" points="376.252,326.644 338.793,348.161 300.93,326.463 
			338.809,304.959 		"/>
		<polygon style="fillRule:evenodd;clip-rule:evenodd;fill:#E2CB9C;" points="373.648,326.639 338.779,346.667 303.534,326.47 
			338.794,306.452 		"/>
	</g>
	<g>
		<polygon style="fillRule:evenodd;clip-rule:evenodd;fill:#968380;" points="337.919,354.139 293.094,379.863 247.787,353.898 
			247.787,353.897 247.787,352.509 250.223,352.515 293.115,328.165 335.512,352.744 337.917,352.751 337.917,354.138 		"/>
		<polygon style="fillRule:evenodd;clip-rule:evenodd;fill:#F5EEE1;" points="337.919,352.751 293.094,378.5 247.787,352.535 
			293.115,326.802 		"/>
		<polygon style="fillRule:evenodd;clip-rule:evenodd;fill:#E2CB9C;" points="330.513,352.735 293.055,374.251 255.192,352.554 
			293.071,331.05 		"/>
		<polygon style="fillRule:evenodd;clip-rule:evenodd;fill:#F5EEE1;" points="327.91,352.729 293.041,372.758 257.795,352.56 
			293.056,332.543 		"/>
	</g>
	<g>
		<polygon style="fillRule:evenodd;clip-rule:evenodd;fill:#968380;" points="292.18,380.23 247.356,405.954 202.048,379.989 
			202.049,379.988 202.049,378.6 204.484,378.606 247.376,354.256 289.773,378.834 292.179,378.841 292.179,380.229 		"/>
		<polygon style="fillRule:evenodd;clip-rule:evenodd;fill:#F5EEE1;" points="292.18,378.842 247.356,404.591 202.048,378.626 
			247.376,352.892 		"/>
		<polygon style="fillRule:evenodd;clip-rule:evenodd;fill:#FFFFFF;" points="284.775,378.826 247.316,400.342 209.454,378.644 
			247.333,357.14 		"/>
		<polygon style="fillRule:evenodd;clip-rule:evenodd;fill:#E2CB9C;" points="282.172,378.82 247.303,398.849 212.057,378.651 
			247.318,358.633 		"/>
	</g>
	<g>
		<polygon style="fillRule:evenodd;clip-rule:evenodd;fill:#968380;" points="246.442,406.32 201.617,432.044 156.31,406.079 
			156.311,406.079 156.311,404.69 158.746,404.697 201.637,380.347 244.035,404.925 246.44,404.932 246.44,406.32 		"/>
		<polygon style="fillRule:evenodd;clip-rule:evenodd;fill:#F5EEE1;" points="246.442,404.932 201.617,430.681 156.31,404.716 
			201.637,378.983 		"/>
		<polygon style="fillRule:evenodd;clip-rule:evenodd;fill:#E2CB9C;" points="239.037,404.916 201.578,426.433 163.715,404.735 
			201.595,383.23 		"/>
		<polygon style="fillRule:evenodd;clip-rule:evenodd;fill:#F5EEE1;" points="236.433,404.91 201.564,424.939 166.319,404.742 
			201.58,384.724 		"/>
	</g>
</g>
<g>
	<g>
		<path style="fillRule:evenodd;clip-rule:evenodd;fill:#B84A00;" d="M51.288,249.485c0.001-9.593,16.826-12.256,32.271-12.256
			c8.463,0,32.779,8.056,32.79,13.603c-0.24,3.712-4.517,47.148-4.518,44.798c-0.121,9.529-12.599,17.21-27.97,17.21
			c-10.258,0-27.775-4.477-27.975-17.909L51.288,249.485z"/>
		<path style="fillRule:evenodd;clip-rule:evenodd;fill:#F86501;" d="M79.248,229.555c-19.335,1.311-32.959,11.449-30.426,22.637
			c2.534,11.192,20.266,19.206,39.6,17.896c19.33-1.31,32.953-11.448,30.419-22.64C116.309,236.258,98.577,228.245,79.248,229.555z"
			/>
		<path style="fillRule:evenodd;clip-rule:evenodd;fill:#D45500;" d="M79.607,231.144c-17.818,1.208-30.373,10.55-28.04,20.862
			c2.335,10.314,18.676,17.699,36.494,16.491c17.814-1.207,30.368-10.549,28.034-20.864
			C113.761,237.322,97.421,229.937,79.607,231.144z"/>
		<path style="fillRule:evenodd;clip-rule:evenodd;fill:#666666;" d="M79.607,243.344c-12.668,0.858-22.671,5.826-26.559,12.333
			c4.909,8.333,19.391,13.88,35.013,12.822c12.662-0.858,22.663-5.83,26.553-12.337C109.708,247.83,95.224,242.285,79.607,243.344z"
			/>
		<g>
			<path style="fill:#CCCCCC;" d="M63.733,278.229c-6.282,0-11.108-1.475-13.72-4.47c-2.161-2.479-3.716-7.16,1.147-15.392
				c0.193-0.326,0.614-0.435,0.941-0.242c0.327,0.193,0.435,0.614,0.242,0.941c-3.519,5.957-3.967,10.725-1.295,13.788
				c5.451,6.253,22.544,5.045,41.57-2.934c0.349-0.145,0.753,0.018,0.899,0.368c0.147,0.35-0.018,0.753-0.368,0.899
				C82.033,275.851,71.71,278.229,63.733,278.229z"/>
		</g>
	</g>
	<g>
		<path style="fillRule:evenodd;clip-rule:evenodd;fill:#5A556E;" d="M98.803,321.14l0.254-15.302l16.445-11.302l3.308,12.125
			C101.518,318.782,118.625,307.246,98.803,321.14z"/>
		<path style="fillRule:evenodd;clip-rule:evenodd;fill:#EDEDED;" d="M99.034,321.277l0.254-15.302l16.445-11.301l3.308,12.125
			C101.75,318.918,118.856,307.382,99.034,321.277z"/>
		<path style="fillRule:evenodd;clip-rule:evenodd;fill:#5A556E;" d="M98.48,308.505c-0.298-4.475,2.326-10.088,5.924-12.588
			l4.188-2.944c1.799-1.25,3.515-1.496,4.846-0.889l0.001,0.001l0,0l1.539,0.677l-14.992,16.407L98.48,308.505z"/>
		<path style="fillRule:evenodd;clip-rule:evenodd;fill:#74869F;" d="M99.988,309.169c-0.298-4.474,2.326-10.087,5.924-12.588
			l4.189-2.945c3.598-2.5,6.87-0.985,7.374,3.346L99.988,309.169z"/>
		<path style="fillRule:evenodd;clip-rule:evenodd;fill:#5A556E;" d="M107.786,276.005l1.152,17.476l-3.276,2.117v-16.242
			c0.281-0.189,0.562-0.53,0.762-0.96c0.369-0.793,0.329-1.595-0.093-1.791c-0.192-0.09-0.432-0.036-0.668,0.123v-1.478
			C106.703,274.639,107.697,274.667,107.786,276.005z M105.662,295.599l-0.484,0.313l-1.978-16.757
			c-0.17-1.437,1.182-3.153,2.462-3.904v1.478c-0.282,0.189-0.561,0.529-0.762,0.96c-0.368,0.791-0.328,1.593,0.094,1.789
			c0.193,0.09,0.43,0.038,0.667-0.121V295.599z"/>
		<path style="fillRule:evenodd;clip-rule:evenodd;fill:#74869F;" d="M108.414,276.298l1.141,17.311l-3.266,2.26V279.65
			c0.282-0.189,0.562-0.53,0.762-0.96c0.369-0.793,0.328-1.595-0.093-1.791c-0.193-0.09-0.432-0.036-0.669,0.123v-1.479
			C107.331,274.932,108.326,274.959,108.414,276.298z M106.29,295.869l-0.484,0.335l-1.978-16.757
			c-0.169-1.436,1.182-3.153,2.462-3.904v1.479c-0.282,0.189-0.561,0.528-0.761,0.959c-0.368,0.791-0.328,1.594,0.094,1.789
			c0.193,0.09,0.431,0.038,0.667-0.121V295.869z"/>
	</g>
</g>
<g>
	<path style="fillRule:evenodd;clip-rule:evenodd;fill:#ACACE5;" d="M216.73,155.397c-11.405,3.954-9.105,14.481-1.95,21.878
		c0.433,0.308,10.504,27.648,30.238,40.013c8.98,7.699,12.698-6.269,10.768-11.368c-1.498-3.953-10.428-23.583-16.938-34.006
		C234.684,155.139,228.986,146.067,216.73,155.397z"/>
	<path style="fillRule:evenodd;clip-rule:evenodd;fill:#C7C7F2;" d="M249.514,204.441c11.8-5.061,24.076-7.039,27.342-6.493
		c3.518,3.153,3.235,14.428-2.833,15.885c-8.716,2.093-3.335,13.074-25.897,9.909C238.375,222.774,242.207,207.573,249.514,204.441z
		"/>
	<path style="fillRule:evenodd;clip-rule:evenodd;fill:#ACACE5;" d="M283.512,199.023c3.321,0.856,4.109,10.652,0.077,12.002
		c-3.5,0.257-5.724,0.14-9.224,0.397c-3.719-2.457-3.069-12.052,1.65-13.261C279.654,198.58,279.873,198.605,283.512,199.023z"/>
	<path style="fillRule:evenodd;clip-rule:evenodd;fill:#DB9669;" d="M279.321,200.938c0.601-0.734,2.838-1.275,3.702-0.954
		c4.687,0.892,6.238,1.426,11.425,2.815c2.626,1.398,5.345,4.93,6.58,7.493c0.801,2.192,2.84,6.829,2.438,7.217
		c-0.415,0.236-0.784,0.268-1.297-0.033c0.136,0.825,1.1,1.732,0.535,1.901c-1.634,0.467-2.641-1.084-2.641-1.084
		c0.203,0.43,0.921,1.13,0.608,1.292c-1.615,0.837-2.614-1.038-3.272-1.722c-0.642-0.671-2.071-2.869-2.701-3.575
		c-1.536-1.709-3.65-2.656-0.847,1.011c1.455,1.851,3.462,4.916,2.159,4.911c-1.67-0.339-2.436-2.184-3.949-4.004
		c-5.193-6.241-5.754-5.736-9.082-7.292C279.324,207.204,277.917,202.654,279.321,200.938z"/>
	
		<ellipse style="opacity:0.59;fillRule:evenodd;clip-rule:evenodd;fill:#D87A25;" cx="197.622" cy="323.702" rx="71.75" ry="38.045"/>
	<g>
		<path style="fillRule:evenodd;clip-rule:evenodd;fill:#DCCF71;" d="M164.568,273.122c0,0-12.24,5.428-11.103-0.664
			c0.483-2.592-4.31-1.006-6.002-0.377c-1.51,0.962-3.976,9.218-3.603,10.697c0.381,1.527,1.265,2.116,0.158,3.824
			c-1.096,1.706-2.764,1.535-4.094,4.132c-1.148,2.231-3.322,11.583,2.001,18.762c2.296,3.095,3.772,4.68,6.996,2.648
			c1.021-0.632,3.913-11.004,4.691-13.901c1.989-7.408,8.43-11.749,9.91-12.703c1.477-0.97,5.951-4.032,5.951-4.032
			C169.476,281.509,169.774,278.298,164.568,273.122z"/>
		<path style="fillRule:evenodd;clip-rule:evenodd;fill:#A04545;" d="M164.568,273.122c-3.241-1.11-8.43-2.857-13.644-0.977
			c-1.51,0.963-4.68,8.67-4.307,10.149c0.869,3.486-2.416,5.314-3.835,8.084c-2.479,4.693-3.728,14.039,3.389,20.842
			c1.845,1.356,4.291-0.166,5.311-1.355c1.833-2.14,1.351-8.725,2.13-11.622c2.037-8.584,10.998-12.344,12.477-13.297
			c1.477-0.97,3.384-3.438,3.384-3.438C169.476,281.509,169.774,278.298,164.568,273.122z"/>
		<g>
			<path style="fill:#FFCC00;" d="M148.99,295.298c-0.18-0.041-0.384,0.095-0.452,0.302c-0.068,0.209,0.023,0.411,0.204,0.453
				c1.541,0.345,2.656,0.921,3.408,1.693c0.738,0.754,1.132,1.705,1.246,2.812c0.023,0.204,0.196,0.323,0.389,0.265
				c0.193-0.057,0.333-0.27,0.312-0.475c-0.131-1.259-0.58-2.341-1.422-3.204C151.848,296.297,150.643,295.668,148.99,295.298z"/>
			<path style="fill:#FFCC00;" d="M150.065,293.305c-0.156-0.035-0.332,0.083-0.391,0.262c-0.059,0.18,0.02,0.355,0.177,0.39
				c1.333,0.299,2.297,0.798,2.948,1.464c0.639,0.654,0.979,1.475,1.078,2.432c0.018,0.177,0.169,0.279,0.335,0.231
				c0.167-0.05,0.288-0.235,0.27-0.412c-0.113-1.089-0.502-2.025-1.23-2.771C152.536,294.17,151.494,293.626,150.065,293.305z"/>
			<path style="fill:#FFCC00;" d="M151.214,291.304c-0.156-0.035-0.333,0.082-0.392,0.262c-0.059,0.18,0.02,0.355,0.177,0.39
				c1.333,0.299,2.297,0.797,2.948,1.464c0.638,0.653,0.98,1.476,1.078,2.432c0.019,0.177,0.168,0.28,0.336,0.23
				c0.167-0.049,0.288-0.235,0.269-0.411c-0.112-1.09-0.501-2.026-1.23-2.772C153.685,292.169,152.644,291.624,151.214,291.304z"/>
			<path style="fill:#FFCC00;" d="M152.363,289.303c-0.157-0.036-0.333,0.082-0.392,0.261c-0.059,0.181,0.021,0.355,0.178,0.391
				c1.332,0.298,2.297,0.797,2.948,1.464c0.638,0.653,0.979,1.475,1.077,2.432c0.019,0.176,0.168,0.279,0.336,0.229
				c0.167-0.049,0.289-0.233,0.269-0.41c-0.112-1.09-0.501-2.026-1.23-2.772C154.835,290.167,153.792,289.623,152.363,289.303z"/>
			<path style="fill:#FFCC00;" d="M153.514,287.302c-0.158-0.036-0.334,0.082-0.393,0.262c-0.059,0.179,0.02,0.355,0.177,0.39
				c1.333,0.297,2.298,0.798,2.948,1.465c0.638,0.652,0.979,1.475,1.076,2.432c0.02,0.177,0.17,0.279,0.337,0.23
				c0.167-0.049,0.289-0.235,0.27-0.411c-0.113-1.09-0.502-2.026-1.23-2.772C155.985,288.165,154.942,287.62,153.514,287.302z"/>
			<path style="fill:#FFCC00;" d="M154.662,285.299c-0.157-0.034-0.332,0.083-0.392,0.262c-0.059,0.18,0.021,0.355,0.177,0.391
				c1.333,0.299,2.297,0.797,2.949,1.464c0.637,0.653,0.979,1.476,1.078,2.433c0.019,0.177,0.169,0.278,0.335,0.229
				c0.167-0.05,0.288-0.234,0.269-0.411c-0.112-1.089-0.501-2.026-1.229-2.771C157.135,286.164,156.091,285.62,154.662,285.299z"/>
			<path style="fill:#FFCC00;" d="M155.812,283.299c-0.157-0.036-0.332,0.082-0.391,0.261c-0.059,0.18,0.02,0.354,0.175,0.39
				c1.333,0.299,2.298,0.798,2.949,1.465c0.637,0.654,0.979,1.475,1.078,2.433c0.018,0.177,0.169,0.279,0.336,0.23
				c0.166-0.05,0.287-0.234,0.268-0.411c-0.113-1.089-0.501-2.026-1.229-2.772C158.284,284.163,157.241,283.618,155.812,283.299z"/>
		</g>
	</g>
	<path style="fillRule:evenodd;clip-rule:evenodd;fill:#1A4482;" d="M156.147,270.803c-4.955,3.535-9.241,9.735-2.659,22.843
		c17.015,10.31,28.992,36.718,45.331,48.904c-8.399-16.979-6.057-25.076-14.456-42.054
		C172.801,281.051,162.482,271.366,156.147,270.803z"/>
	<path style="fillRule:evenodd;clip-rule:evenodd;fill:#C7C7F2;" d="M196.232,148.818c-1.368-0.041-19.121,4.15-27.38,8.901
		c-5.745,3.999-2.522,16.989-2.848,18.588c-1.083,5.188-6.717,38.243-7.33,45.485c-0.613,7.238-5.538,9.369-0.429,13.77
		c3.482,21.843,35.69,43.31,43.519,27.762c0.459-14.996,17.252-52.256,23.921-76.26c1.604-5.776,10.444-24.822,3.614-34.664
		c-1.739-2.517-5.92-4.889-8.657-5.416C210.893,145.103,197.935,148.877,196.232,148.818z"/>
	<path style="fillRule:evenodd;clip-rule:evenodd;fill:#305DA5;" d="M208.829,151.369c10.187-0.576,14.607,15.996,5.754,44.91
		c2.874,1.942,4.588,0.195,8.597,0.156c7.198-23.956,10.613-40.406-2.066-47.349C215.375,149.671,214.352,149.034,208.829,151.369z"
		/>
	<g>
		<path style="fillRule:evenodd;clip-rule:evenodd;fill:#DCCF71;" d="M220.932,318.291c0,0,2.89,13.074-2.855,10.75
			c-2.445-0.988-1.841,4.025-1.561,5.808c0.643,1.67,8.244,5.726,9.768,5.654c1.573-0.07,2.325-0.82,3.779,0.606
			c1.454,1.412,0.956,3.012,3.237,4.832c1.959,1.568,10.692,5.554,18.786,1.763c3.489-1.635,5.336-2.767,3.984-6.331
			c-0.417-1.127-10.008-6.02-12.693-7.359c-6.866-3.421-9.841-10.595-10.482-12.234c-0.657-1.64-2.771-6.633-2.771-6.633
			C230.126,315.147,227.039,314.218,220.932,318.291z"/>
		<path style="fillRule:evenodd;clip-rule:evenodd;fill:#A04545;" d="M220.932,318.291c-1.732,2.956-4.474,7.695-3.665,13.179
			c0.643,1.671,7.568,6.307,9.091,6.235c3.589-0.161,4.729,3.423,7.161,5.364c4.107,3.361,13.02,6.441,21.099,0.816
			c1.695-1.539,0.689-4.238-0.274-5.475c-1.733-2.221-8.282-3.056-10.968-4.395c-8.009-3.7-9.915-13.228-10.556-14.868
			c-0.656-1.64-2.697-3.999-2.697-3.999C230.126,315.147,227.039,314.218,220.932,318.291z"/>
		<g>
			<path style="fill:#FFCC00;" d="M239.574,337.962c-0.075,0.169,0.017,0.395,0.207,0.503c0.19,0.108,0.407,0.058,0.483-0.11
				c0.643-1.442,1.431-2.419,2.335-3.004c0.887-0.574,1.897-0.772,3.004-0.663c0.204,0.018,0.355-0.128,0.337-0.329
				c-0.018-0.199-0.199-0.38-0.404-0.399c-1.26-0.123-2.41,0.102-3.422,0.757C241.12,335.359,240.264,336.415,239.574,337.962z"/>
			<path style="fill:#FFCC00;" d="M237.834,336.513c-0.066,0.146,0.014,0.342,0.179,0.435c0.164,0.095,0.352,0.051,0.417-0.095
				c0.558-1.247,1.238-2.093,2.021-2.599c0.767-0.495,1.641-0.666,2.598-0.573c0.177,0.017,0.308-0.11,0.292-0.283
				c-0.015-0.173-0.173-0.329-0.35-0.346c-1.09-0.106-2.084,0.089-2.96,0.655C239.171,334.263,238.432,335.176,237.834,336.513z"/>
			<path style="fill:#FFCC00;" d="M236.1,334.989c-0.065,0.147,0.015,0.342,0.18,0.436c0.165,0.094,0.352,0.05,0.418-0.096
				c0.557-1.247,1.238-2.093,2.02-2.598c0.766-0.496,1.64-0.668,2.598-0.574c0.177,0.017,0.308-0.11,0.292-0.283
				c-0.015-0.173-0.173-0.329-0.349-0.346c-1.09-0.106-2.086,0.089-2.96,0.655C237.439,332.738,236.698,333.652,236.1,334.989z"/>
			<path style="fill:#FFCC00;" d="M234.368,333.465c-0.066,0.147,0.014,0.343,0.177,0.436c0.165,0.094,0.352,0.051,0.419-0.095
				c0.557-1.247,1.238-2.093,2.021-2.599c0.766-0.496,1.639-0.667,2.597-0.574c0.177,0.017,0.307-0.11,0.291-0.283
				c-0.015-0.174-0.173-0.33-0.349-0.345c-1.09-0.107-2.084,0.089-2.959,0.654C235.705,331.214,234.964,332.129,234.368,333.465z"/>
			<path style="fill:#FFCC00;" d="M232.635,331.941c-0.066,0.147,0.014,0.343,0.179,0.437c0.164,0.093,0.352,0.051,0.417-0.096
				c0.556-1.246,1.237-2.093,2.02-2.599c0.766-0.495,1.64-0.667,2.598-0.572c0.177,0.015,0.308-0.111,0.292-0.284
				c-0.016-0.174-0.173-0.33-0.35-0.345c-1.091-0.106-2.086,0.089-2.961,0.654C233.972,329.691,233.231,330.605,232.635,331.941z"/>
			<path style="fill:#FFCC00;" d="M230.9,330.417c-0.065,0.147,0.015,0.343,0.179,0.437c0.165,0.093,0.353,0.051,0.419-0.096
				c0.557-1.247,1.238-2.093,2.021-2.599c0.766-0.495,1.64-0.666,2.599-0.573c0.176,0.016,0.306-0.11,0.291-0.284
				c-0.015-0.174-0.172-0.328-0.35-0.345c-1.089-0.106-2.084,0.089-2.959,0.655C232.238,328.167,231.497,329.081,230.9,330.417z"/>
			<path style="fill:#FFCC00;" d="M229.168,328.894c-0.066,0.145,0.014,0.341,0.179,0.435c0.164,0.093,0.351,0.051,0.417-0.095
				c0.557-1.247,1.237-2.092,2.02-2.599c0.767-0.495,1.641-0.667,2.598-0.573c0.177,0.016,0.307-0.11,0.292-0.284
				c-0.016-0.172-0.173-0.328-0.349-0.345c-1.09-0.106-2.085,0.089-2.961,0.655C230.505,326.643,229.764,327.557,229.168,328.894z"
				/>
		</g>
	</g>
	<path style="fillRule:evenodd;clip-rule:evenodd;fill:#1A4482;" d="M176.044,254.316c2.812,8.61,1.575,15.353,3.726,24.136
		c3.46,10.911,50.553-11.568,57.951-5.726c-13.513,13.08-19.277,31.32-19.77,52.067c6.177,4.851,12.866,10.117,21.21,5.1
		c7.37-21.935,23.429-49.815,28.364-58.726c1.375-2.482,4.97-18.728-0.086-22.281c-32.544-15.052-51.594-4.743-58.78-9.274
		c-0.703-4.408,0.035-10.087-0.501-11.783c0,0-7.648,4.882-23.137,7.995C184.926,238.942,175.636,253.068,176.044,254.316z"/>
	<path style="fillRule:evenodd;clip-rule:evenodd;fill:#305DA5;" d="M198.819,342.551c3.19,2.057,6.265,3.292,9.441,3.256
		c3.441-0.037,10.146-2.823,10.401-5.863c0.588-26.513-7.337-41.294-19.971-72.708c9.871-2.46,2.92-19.711,3.665-36.559
		c-21.663,14.47-37.909,8.779-43.246,4.606c-7.215,11.477-3.352,31.941-0.609,36.049c4.749,7.113,5.864,5.16,15.121,20.284
		C183.305,309.528,188.786,330.013,198.819,342.551z"/>
	<path style="fillRule:evenodd;clip-rule:evenodd;fill:#1A4482;" d="M158.146,236.987c7.798,6.798,40.435,9.054,50.897-5.477
		c-0.122-1.692,0.37-4.758,0.248-6.45c-11.855,8.617-37.006,14.789-50.209,7.323C158.77,233.917,158.458,235.452,158.146,236.987z"
		/>
	<path style="fillRule:evenodd;clip-rule:evenodd;fill:#DADAF7;" d="M174.248,158.358c-10.301-6.291-17.901,12.352-19.063,22.578
		c0.041,0.576-10.504,22.506-8.584,42.018c2.148,10.073,16.646,7.912,19.676-1.871c7.99-11.814,11.095-26.632,13.165-30.44
		C182.91,184.259,186.247,162.919,174.248,158.358z"/>
	<path style="fillRule:evenodd;clip-rule:evenodd;fill:#305DA5;" d="M167.572,235.213c12.125-9.788,17.17-24.121,18.815-48.521
		c15.608,2.41,30.656-1.847,41.683-8.593c-4.936,18.072-11.14,45.973-19.735,55.621C202.295,237.195,191.76,242.289,167.572,235.213
		z"/>
	<path style="fillRule:evenodd;clip-rule:evenodd;fill:#305DA5;" d="M169.695,157.254c9.354-0.78,17.469,11.122,17.058,42.099
		c3.211,2.024,7.546,1.913,11.278,1.807c0.212-25.663-2.385-48.047-14.636-49.006C178.196,152.87,174.216,154.673,169.695,157.254z"
		/>
	<path style="fillRule:evenodd;clip-rule:evenodd;fill:#1A4482;" d="M186.281,229.219c4.364-11.19,7.39-22.707,7.477-34.943
		c9.938,0.304,19.001-1.448,26.781-6.21c-3.483,12.753-3.828,30.755-9.893,37.563C202.068,228.589,193.676,229.939,186.281,229.219z
		"/>
	<path style="fillRule:evenodd;clip-rule:evenodd;fill:#1A4482;" d="M202.16,313.226c-5.34-8.845-9.65-18.296-11.698-29.08
		c-7.994,2.627-15.024,3.418-22.091,1.061c4.546,12.555,9.783,29.402,15.557,29.924C191.349,315.709,196.292,315.616,202.16,313.226
		z"/>
	<path style="fillRule:evenodd;clip-rule:evenodd;fill:#305DA5;" d="M188.741,285.623c-9.028,1.818-14.673,1.943-20.417,0.626
		c0.386,2.839,0.771,5.678,1.158,8.519c6.62,1.63,13.415,2.195,20.695-0.184C190.252,291.58,189.885,288.588,188.741,285.623z"/>
	<path style="fillRule:evenodd;clip-rule:evenodd;fill:#1A4482;" d="M190.165,245.252c0.839,16.046,5.384,19.183,9.878,33.232
		c-8.866-2.103-15.744,0.342-23.086,5.835c-4.422-6.204-10.881-10.477-11.104-20.665c11.785-2.305,16.801-3.901,14.179-17.329
		C183.152,247.171,187.047,245.382,190.165,245.252z"/>
	<path style="fillRule:evenodd;clip-rule:evenodd;fill:#305DA5;" d="M194.932,195.968c11.308-1.06,18.019-2.918,24.335-6.516
		c0.553,3.49,1.107,6.981,1.661,10.473c-7.24,4.278-15.064,7.36-24.507,7.138C195.263,203.542,194.634,199.877,194.932,195.968z"/>
	<path style="fillRule:evenodd;clip-rule:evenodd;fill:#1A4482;" d="M174.794,294.127c0.144-0.65-0.58-1.458-1.616-1.804
		c-1.037-0.345-1.995-0.098-2.139,0.551c-0.144,0.651,0.58,1.458,1.616,1.804C173.692,295.023,174.65,294.777,174.794,294.127z"/>
	<path style="fillRule:evenodd;clip-rule:evenodd;fill:#1A4482;" d="M188.872,293.468c0.144-0.651-0.58-1.458-1.616-1.804
		c-1.037-0.345-1.995-0.099-2.139,0.551c-0.144,0.651,0.58,1.458,1.616,1.804C187.77,294.364,188.727,294.117,188.872,293.468z"/>
	<path style="fillRule:evenodd;clip-rule:evenodd;fill:#1A4482;" d="M198.713,204.554c-0.326-0.581,0.135-1.562,1.028-2.192
		c0.894-0.63,1.882-0.67,2.207-0.088c0.326,0.581-0.135,1.562-1.028,2.193C200.026,205.095,199.038,205.136,198.713,204.554z"/>
	<path style="fillRule:evenodd;clip-rule:evenodd;fill:#DADAF7;" d="M149.32,227.187c5.593,6.411,39.949,7.782,50.915,5.72
		c3.659-2.989,4.869-15.687,0.706-16.206c-4.169-1.242-30.677-4.216-42.859-6.267C149.416,210.895,147.548,220.095,149.32,227.187z"
		/>
	<path style="fillRule:evenodd;clip-rule:evenodd;fill:#ACACE5;" d="M208.118,218.975c3.289,0.971,3.737,10.788-0.339,11.998
		c-3.507,0.136-5.726-0.06-9.233,0.077c-3.631-2.584-2.65-12.151,2.109-13.195C204.278,218.398,204.496,218.432,208.118,218.975z"/>
	<path style="fillRule:evenodd;clip-rule:evenodd;fill:#1A4482;" d="M214.439,200.023c-0.326-0.581,0.135-1.562,1.028-2.192
		c0.894-0.63,1.882-0.669,2.208-0.088c0.325,0.581-0.136,1.562-1.029,2.193C215.753,200.565,214.764,200.605,214.439,200.023z"/>
	<path style="fillRule:evenodd;clip-rule:evenodd;fill:#DB9669;" d="M215.37,219.551c2.776-0.886,8.105-0.682,9.975-0.516
		c2.41,0.215,3.536,0.802,5.947,1.02c-0.965,1.535-0.688,2.676-4.927,1.925c-3.059,0.514-13.618,6.15-14.581,2.141
		C211.785,221.685,211.816,220.408,215.37,219.551z"/>
	<path style="fillRule:evenodd;clip-rule:evenodd;fill:#221F1F;" d="M198.958,132.509l-0.004,0.54
		C198.951,132.866,198.954,132.684,198.958,132.509z"/>
	<path style="fillRule:evenodd;clip-rule:evenodd;fill:#221F1F;" d="M220.794,153.097l-0.004,0.484
		C220.788,153.417,220.789,153.255,220.794,153.097z"/>
	<path style="fillRule:evenodd;clip-rule:evenodd;fill:#DB9669;" d="M206.182,138.872c-2.462,4.864-6.978,9.645-9.41,14.446
		c-1.92,3.792,2.864,10.469,4.272,12.698c6.487,10.273,12.608,5.711,14.264,0.553c0.729-2.36,1.421-5.3,1.739-7.814
		c0.37-2.786-4.416-4.72-3.159-7.202L206.182,138.872z"/>
	<path style="fillRule:evenodd;clip-rule:evenodd;fill:#F2B387;" d="M244.866,132.888c-1.403,2.88-1.683,6.078-2.359,9.193
		c-0.25,3.788-4.762,2.88-3.875,8.809c-1.091,3.488-4.323,8.348-6.719,11.118c-1.558,2.159-3.48,5.481-8.33,6.161
		c-7.395,1.197-10.826-7.088-15.617-11.698c-4.758-4.559,0.964-10.471,1.343-15.975c0.698-9.92,6.375-21.277,17.407-20.687
		c4.93,0.262,12.183,2.603,15.71,6.183C243.675,127.25,246.38,129.992,244.866,132.888z"/>
	<path style="fillRule:evenodd;clip-rule:evenodd;fill:#221F1F;" d="M202.674,132.115l-0.057,0.536
		C202.633,132.469,202.652,132.288,202.674,132.115z"/>
	<path style="fillRule:evenodd;clip-rule:evenodd;fill:#4F2B0C;" d="M220.139,136.973c-1.941,0.042-2.405,0.034-3.827,1.881
		c-1.204,1.561-2.523,1.112-3.824,4.809c-0.456,0.809-5.007-4.66-9.86,0.842c-4.155-9.495,2.814-28.543,10.198-30.712
		c10.103,5.532,13.713,7.279,15.045,14.905C227.307,132.019,222.638,136.919,220.139,136.973z"/>
	<path style="fillRule:evenodd;clip-rule:evenodd;fill:#4F2B0C;" d="M234.209,114.837c13.749,9.544,18.737,18.95,10.288,21.521
		c-2.87,0.874-8.586-0.217-16.988-6.427c-0.992-6.114-3.536-10.033-14.684-16.138C219.536,106.566,230.627,112.352,234.209,114.837z
		"/>
	<path style="fillRule:evenodd;clip-rule:evenodd;fill:#221F1F;" d="M222.402,154.73l-0.051,0.482
		C222.365,155.048,222.382,154.887,222.402,154.73z"/>
	<path style="fillRule:evenodd;clip-rule:evenodd;fill:#F2B387;" d="M205.64,138.71c-0.207,3.603,0.91,6.586,2.485,6.669
		c1.579,0.092,3.483-2.794,3.678-6.386c0.211-3.585-1.356-6.526-2.938-6.607C207.283,132.284,205.844,135.131,205.64,138.71z"/>
	<g>
		<polygon style="fillRule:evenodd;clip-rule:evenodd;fill:#968380;" points="316.845,224.48 272.02,250.204 226.712,224.239 
			226.713,224.239 226.713,222.85 229.149,222.857 272.04,198.507 314.438,223.085 316.843,223.092 316.843,224.48 		"/>
		<polygon style="fillRule:evenodd;clip-rule:evenodd;fill:#F5EEE1;" points="316.845,223.092 272.02,248.841 226.712,222.876 
			272.04,197.143 		"/>
		<polygon style="fillRule:evenodd;clip-rule:evenodd;fill:#FFFFFF;" points="309.44,223.076 271.98,244.593 234.118,222.895 
			271.997,201.391 		"/>
		<polygon style="fillRule:evenodd;clip-rule:evenodd;fill:#E2CB9C;" points="306.836,223.071 271.967,243.099 236.721,222.902 
			271.983,202.884 		"/>
	</g>
	<path style="fillRule:evenodd;clip-rule:evenodd;fill:#F2B387;" d="M287.335,201.302c1.809,1.429,2.459,4.109,2.974,5.57
		c0.584,3.148,1.957,4.859,1.238,4.984c-1.566,0.361-3.996,0.136-4.23-3.741c-0.551-0.693-0.389-1.516-1.624-2.078
		C280.087,203.491,284.657,198.313,287.335,201.302z"/>
	<path style="fillRule:evenodd;clip-rule:evenodd;fill:#DB9669;" d="M228.057,228.003l7.91,3.405
		c1.863,0.803,2.887-1.45,1.14-2.469l-7.636-4.479C227.723,223.439,226.228,227.125,228.057,228.003z"/>
	<path style="fillRule:evenodd;clip-rule:evenodd;fill:#F2B387;" d="M206.933,226.846c-0.317-1.422-0.237-7.688,2.705-7.302
		c4.412-0.242,9.263,0.875,9.884,1.042c1.077,0.288,7.036,2.414,9.044,3.288c2.714,1.183,3.497,4.186,1.052,4.697
		c0.303,0.907-0.117,2.325-1.37,2.639c-0.36,1.057-0.325,1.931-1.641,2.702c-0.381,0.695,0.451,1.895-1.455,2.199
		c-2.597,0.975-10.055-2.531-13.797-4.308C207.759,230.098,207.67,230.142,206.933,226.846z"/>
</g>
<g>
	<polygon style="fillRule:evenodd;clip-rule:evenodd;fill:#B2B2B2;" points="368.612,353.348 364.188,355.884 277.146,306.283 
		277.146,294.631 281.719,303.877 368.612,341.695 	"/>
	<polygon style="fillRule:evenodd;clip-rule:evenodd;fill:#FFCC00;" points="364.12,355.846 277.147,306.284 277.147,294.63 
		364.188,344.232 	"/>
	<polygon style="fillRule:evenodd;clip-rule:evenodd;fill:#FFED00;" points="368.612,341.696 364.188,344.232 277.146,294.631 
		281.719,292.222 	"/>
	<polygon style="fillRule:evenodd;clip-rule:evenodd;fill:#575756;" points="329.704,319.543 325.29,322.066 311.226,314.051 
		315.815,311.635 	"/>
	<polygon style="fillRule:evenodd;clip-rule:evenodd;fill:#1D1D1B;" points="325.247,322.041 325.249,325.738 311.092,317.622 
		311.226,314.052 	"/>
	<polygon style="fillRule:evenodd;clip-rule:evenodd;fill:#2097A4;" points="324.76,321.764 324.751,324.987 311.59,317.442 
		311.748,314.345 	"/>
	<polygon style="fillRule:evenodd;clip-rule:evenodd;fill:#63C3D1;" points="329.173,319.241 324.759,321.764 311.738,314.362 
		316.345,311.937 	"/>
	<path style="fillRule:evenodd;clip-rule:evenodd;fill:#30E5F2;" d="M316.541,314.841l8.05,4.535
		c0.66,0.372,0.896,1.216,0.524,1.877l0,0c-0.372,0.66-1.216,0.896-1.877,0.524l-8.051-4.535c-0.66-0.372-0.895-1.216-0.524-1.877
		l0,0C315.036,314.705,315.88,314.469,316.541,314.841z"/>
	<path style="fillRule:evenodd;clip-rule:evenodd;fill:#FFFFFF;" d="M319.666,319.37c0.642,0,1.166-0.524,1.166-1.166
		c0-0.642-0.524-1.166-1.166-1.166c-0.642,0-1.165,0.524-1.165,1.166C318.5,318.847,319.024,319.37,319.666,319.37z"/>
</g>
<g>
	<g>
		<polygon style="fillRule:evenodd;clip-rule:evenodd;fill:#968380;" points="392.097,250.51 399.933,197.669 359.382,173.862 
			359.381,173.863 358.086,174.654 358.97,176.725 351.718,227.137 389.928,249.255 390.801,251.3 392.096,250.51 		"/>
		<polygon style="fillRule:evenodd;clip-rule:evenodd;fill:#F5EEE1;" points="390.802,251.301 398.661,198.447 358.109,174.639 
			350.447,227.913 		"/>
		<polygon style="fillRule:evenodd;clip-rule:evenodd;fill:#EDE0C2;" points="388.117,245.002 394.685,200.832 360.797,180.937 
			354.393,225.457 		"/>
		<polygon style="fillRule:evenodd;clip-rule:evenodd;fill:#F5EEE1;" points="387.173,242.787 393.287,201.671 361.741,183.151 
			355.78,224.593 		"/>
	</g>
	<g>
		<polygon style="fillRule:evenodd;clip-rule:evenodd;fill:#968380;" points="388.448,252.848 396.284,200.007 355.733,176.199 
			355.732,176.2 354.437,176.992 355.321,179.063 348.07,229.474 386.279,251.592 387.152,253.638 388.447,252.847 		"/>
		<polygon style="fillRule:evenodd;clip-rule:evenodd;fill:#F5EEE1;" points="387.154,253.639 395.012,200.784 354.461,176.976 
			346.798,230.251 		"/>
		<polygon style="fillRule:evenodd;clip-rule:evenodd;fill:#EDE0C2;" points="384.468,247.339 391.036,203.17 357.148,183.274 
			350.744,227.794 		"/>
		<polygon style="fillRule:evenodd;clip-rule:evenodd;fill:#F5EEE1;" points="383.524,245.124 389.638,204.008 358.093,185.488 
			352.132,226.931 		"/>
	</g>
	<g>
		<polygon style="fillRule:evenodd;clip-rule:evenodd;fill:#968380;" points="384.799,255.185 392.636,202.344 352.084,178.537 
			352.084,178.538 350.788,179.329 351.672,181.4 344.421,231.811 382.63,253.93 383.504,255.975 384.798,255.184 		"/>
		<polygon style="fillRule:evenodd;clip-rule:evenodd;fill:#F5EEE1;" points="383.505,255.976 391.364,203.121 350.812,179.314 
			343.149,232.588 		"/>
		<polygon style="fillRule:evenodd;clip-rule:evenodd;fill:#EDE0C2;" points="380.82,249.676 387.387,205.507 353.499,185.611 
			347.096,230.132 		"/>
		<polygon style="fillRule:evenodd;clip-rule:evenodd;fill:#F5EEE1;" points="379.876,247.462 385.989,206.345 354.444,187.825 
			348.483,229.268 		"/>
	</g>
	<g>
		<polygon style="fillRule:evenodd;clip-rule:evenodd;fill:#968380;" points="381.151,257.523 388.987,204.682 348.435,180.874 
			348.435,180.875 347.139,181.666 348.024,183.737 340.772,234.149 378.982,256.267 379.855,258.313 381.15,257.522 		"/>
		<polygon style="fillRule:evenodd;clip-rule:evenodd;fill:#F5EEE1;" points="379.856,258.314 387.715,205.459 347.163,181.651 
			339.501,234.925 		"/>
		<polygon style="fillRule:evenodd;clip-rule:evenodd;fill:#E2CB9C;" points="377.171,252.014 383.739,207.844 349.851,187.949 
			343.447,232.469 		"/>
		<polygon style="fillRule:evenodd;clip-rule:evenodd;fill:#F5EEE1;" points="376.227,249.799 382.341,208.683 350.795,190.163 
			344.834,231.606 		"/>
	</g>
</g>
<g>
	<polygon style="fillRule:evenodd;clip-rule:evenodd;fill:#5A556E;" points="111.585,367.631 125.567,373.854 177.668,343.098 
		168.07,334.985 166.478,335.905 168.448,337.024 166.135,338.355 164.18,337.233 161.901,338.55 163.86,339.663 161.547,340.993 
		159.603,339.878 157.324,341.195 159.272,342.301 156.959,343.633 155.025,342.524 152.747,343.84 154.684,344.94 152.37,346.272 
		150.449,345.169 148.171,346.485 150.095,347.579 147.783,348.91 145.872,347.815 143.594,349.13 145.507,350.218 143.195,351.549 
		141.295,350.46 139.017,351.777 140.919,352.857 138.607,354.189 136.717,353.105 134.439,354.422 136.331,355.495 
		134.018,356.827 132.141,355.75 129.862,357.067 131.743,358.135 129.431,359.466 127.564,358.396 125.286,359.712 
		127.155,360.774 124.843,362.105 122.987,361.041 120.708,362.358 122.567,363.413 120.254,364.744 118.41,363.686 
		116.132,365.003 117.979,366.052 115.666,367.383 113.833,366.332 	"/>
	<polygon style="fillRule:evenodd;clip-rule:evenodd;fill:#EDEDED;" points="111.559,367.364 125.541,373.587 177.642,342.832 
		168.044,334.717 166.452,335.638 168.422,336.757 166.109,338.089 164.154,336.966 161.874,338.283 163.833,339.395 
		161.521,340.726 159.576,339.611 157.298,340.928 159.245,342.034 156.933,343.366 154.999,342.257 152.721,343.573 
		154.657,344.673 152.344,346.005 150.423,344.902 148.145,346.219 150.069,347.312 147.757,348.643 145.846,347.548 
		143.568,348.864 145.481,349.951 143.169,351.283 141.269,350.193 138.991,351.51 140.893,352.59 138.581,353.922 136.691,352.838 
		134.413,354.155 136.305,355.228 133.992,356.56 132.115,355.483 129.837,356.8 131.717,357.868 129.405,359.199 127.537,358.129 
		125.26,359.445 127.129,360.507 124.817,361.838 122.961,360.774 120.682,362.09 122.541,363.146 120.228,364.477 118.384,363.419 
		116.106,364.736 117.953,365.785 115.64,367.116 113.807,366.065 	"/>
	<path style="fillRule:evenodd;clip-rule:evenodd;fill:#5A556E;" d="M122.691,373.21c3.932,2.158,10.128,2.146,13.912-0.062
		l39.458-22.889c1.893-1.103,2.839-2.556,2.85-4.019v-0.001l0,0l0.035-1.682l-56.221,27.006L122.691,373.21z"/>
	<path style="fillRule:evenodd;clip-rule:evenodd;fill:#74869F;" d="M122.725,371.563c3.931,2.157,10.127,2.146,13.912-0.062
		l39.458-22.889c3.785-2.207,3.791-5.813,0.078-8.098L122.725,371.563z"/>
	<path style="fillRule:evenodd;clip-rule:evenodd;fill:#5A556E;" d="M174.034,368.054l-2.743-1.503v1.729
		c0.874,0,1.584,0.375,1.584,0.84s-0.71,0.84-1.584,0.84v1.265c1.552-0.178,3.176-1.085,3.43-1.986v-0.468
		C174.644,368.515,174.428,368.27,174.034,368.054z M171.291,366.552l-12.617-6.913l-3.79,2.385l14.36,8.861
		c0.555,0.342,1.292,0.427,2.047,0.341v-1.265h-0.001c-0.873,0-1.583-0.374-1.583-0.84s0.71-0.84,1.583-0.84h0.001V366.552z"/>
	<path style="fillRule:evenodd;clip-rule:evenodd;fill:#74869F;" d="M174.034,367.361l-2.743-1.503v1.729
		c0.874,0,1.584,0.375,1.584,0.84c0,0.465-0.71,0.84-1.584,0.84v1.265c1.552-0.177,3.176-1.085,3.43-1.986v-0.468
		C174.644,367.822,174.428,367.577,174.034,367.361z M171.291,365.858l-12.472-6.833l-3.935,2.305l14.36,8.861
		c0.555,0.342,1.292,0.428,2.047,0.341v-1.265h-0.001c-0.873,0-1.583-0.374-1.583-0.84c0-0.465,0.71-0.84,1.583-0.84h0.001V365.858z
		"/>
</g>
</svg>
