<svg xmlns="http://www.w3.org/2000/svg" xmlns:xlink="http://www.w3.org/1999/xlink" width="1080" zoomAndPan="magnify" viewBox="0 0 810 809.999993" height="1080" preserveAspectRatio="xMidYMid meet" version="1.0"><defs><g/><clipPath id="f9e043f2bb"><path d="M 159.121094 335.109375 L 651.253906 335.109375 L 651.253906 337.492188 L 159.121094 337.492188 Z M 159.121094 337.492188 L 161.503906 337.492188 L 161.503906 454.050781 L 159.121094 454.050781 Z M 648.871094 337.492188 L 651.253906 337.492188 L 651.253906 455.167969 L 648.871094 455.167969 Z M 159.121094 454.050781 L 265.898438 454.050781 L 265.898438 456.429688 L 159.121094 456.429688 Z M 562.285156 455.167969 L 651.253906 455.167969 L 651.253906 457.550781 L 562.285156 457.550781 Z M 562.285156 455.167969 " clip-rule="nonzero"/></clipPath></defs><g clip-path="url(#f9e043f2bb)"><path fill="#57676c" d="M 159.121094 335.109375 L 651.25 335.109375 L 651.25 457.546875 L 159.121094 457.546875 Z M 159.121094 335.109375 " fill-opacity="1" fill-rule="nonzero"/></g><g fill="#c13f39" fill-opacity="1"><g transform="translate(185.883185, 419.761922)"><g><path d="M 14.65625 -49.609375 L 14.65625 -28.15625 L 42.90625 -28.15625 L 42.90625 -23.171875 L 14.65625 -23.171875 L 14.65625 0 L 8.890625 0 L 8.890625 -54.59375 L 46.328125 -54.59375 L 46.328125 -49.609375 Z M 14.65625 -49.609375 "/></g></g></g><g fill="#c13f39" fill-opacity="1"><g transform="translate(236.498369, 419.761922)"><g><path d="M 8.890625 -54.59375 L 14.65625 -54.59375 L 14.65625 -4.984375 L 45.234375 -4.984375 L 45.234375 0 L 8.890625 0 Z M 8.890625 -54.59375 "/></g></g></g><g fill="#c13f39" fill-opacity="1"><g transform="translate(283.68203, 419.761922)"><g><path d="M 32.765625 0.46875 C 27.347656 0.46875 22.441406 -0.738281 18.046875 -3.15625 C 13.660156 -5.570312 10.234375 -8.882812 7.765625 -13.09375 C 5.296875 -17.3125 4.0625 -22.046875 4.0625 -27.296875 C 4.0625 -32.546875 5.296875 -37.273438 7.765625 -41.484375 C 10.234375 -45.703125 13.660156 -49.019531 18.046875 -51.4375 C 22.441406 -53.851562 27.347656 -55.0625 32.765625 -55.0625 C 38.171875 -55.0625 43.039062 -53.863281 47.375 -51.46875 C 51.71875 -49.082031 55.140625 -45.769531 57.640625 -41.53125 C 60.140625 -37.289062 61.390625 -32.546875 61.390625 -27.296875 C 61.390625 -22.046875 60.140625 -17.300781 57.640625 -13.0625 C 55.140625 -8.820312 51.71875 -5.503906 47.375 -3.109375 C 43.039062 -0.722656 38.171875 0.46875 32.765625 0.46875 Z M 32.765625 -4.6875 C 37.078125 -4.6875 40.972656 -5.660156 44.453125 -7.609375 C 47.941406 -9.554688 50.671875 -12.257812 52.640625 -15.71875 C 54.617188 -19.175781 55.609375 -23.035156 55.609375 -27.296875 C 55.609375 -31.566406 54.617188 -35.425781 52.640625 -38.875 C 50.671875 -42.332031 47.941406 -45.035156 44.453125 -46.984375 C 40.972656 -48.941406 37.078125 -49.921875 32.765625 -49.921875 C 28.441406 -49.921875 24.523438 -48.941406 21.015625 -46.984375 C 17.503906 -45.035156 14.75 -42.332031 12.75 -38.875 C 10.75 -35.425781 9.75 -31.566406 9.75 -27.296875 C 9.75 -23.035156 10.75 -19.175781 12.75 -15.71875 C 14.75 -12.257812 17.503906 -9.554688 21.015625 -7.609375 C 24.523438 -5.660156 28.441406 -4.6875 32.765625 -4.6875 Z M 32.765625 -4.6875 "/></g></g></g><g fill="#c13f39" fill-opacity="1"><g transform="translate(350.362998, 419.761922)"><g><path d="M 83.84375 -54.59375 L 65.4375 0 L 59.359375 0 L 43.375 -46.5625 L 27.296875 0 L 21.296875 0 L 2.890625 -54.59375 L 8.8125 -54.59375 L 24.5625 -7.640625 L 40.875 -54.59375 L 46.25 -54.59375 L 62.328125 -7.40625 L 78.3125 -54.59375 Z M 83.84375 -54.59375 "/></g></g></g><g fill="#c13f39" fill-opacity="1"><g transform="translate(438.257009, 419.761922)"><g><path d="M 8.890625 -54.59375 L 14.65625 -54.59375 L 14.65625 -4.984375 L 45.234375 -4.984375 L 45.234375 0 L 8.890625 0 Z M 8.890625 -54.59375 "/></g></g></g><g fill="#c13f39" fill-opacity="1"><g transform="translate(485.44067, 419.761922)"><g><path d="M 47.5 -4.984375 L 47.5 0 L 8.890625 0 L 8.890625 -54.59375 L 46.328125 -54.59375 L 46.328125 -49.609375 L 14.65625 -49.609375 L 14.65625 -30.1875 L 42.90625 -30.1875 L 42.90625 -25.265625 L 14.65625 -25.265625 L 14.65625 -4.984375 Z M 47.5 -4.984375 "/></g></g></g><g fill="#c13f39" fill-opacity="1"><g transform="translate(538.863473, 419.761922)"><g><path d="M 23.953125 0.46875 C 19.890625 0.46875 16 -0.179688 12.28125 -1.484375 C 8.5625 -2.785156 5.691406 -4.5 3.671875 -6.625 L 5.921875 -11.078125 C 7.898438 -9.097656 10.523438 -7.5 13.796875 -6.28125 C 17.078125 -5.0625 20.460938 -4.453125 23.953125 -4.453125 C 28.835938 -4.453125 32.5 -5.347656 34.9375 -7.140625 C 37.382812 -8.929688 38.609375 -11.257812 38.609375 -14.125 C 38.609375 -16.300781 37.941406 -18.039062 36.609375 -19.34375 C 35.285156 -20.644531 33.660156 -21.644531 31.734375 -22.34375 C 29.816406 -23.050781 27.144531 -23.816406 23.71875 -24.640625 C 19.601562 -25.679688 16.320312 -26.679688 13.875 -27.640625 C 11.4375 -28.609375 9.34375 -30.078125 7.59375 -32.046875 C 5.851562 -34.023438 4.984375 -36.707031 4.984375 -40.09375 C 4.984375 -42.84375 5.710938 -45.347656 7.171875 -47.609375 C 8.628906 -49.878906 10.863281 -51.6875 13.875 -53.03125 C 16.894531 -54.382812 20.640625 -55.0625 25.109375 -55.0625 C 28.234375 -55.0625 31.289062 -54.632812 34.28125 -53.78125 C 37.269531 -52.925781 39.859375 -51.742188 42.046875 -50.234375 L 40.09375 -45.625 C 37.800781 -47.132812 35.351562 -48.265625 32.75 -49.015625 C 30.15625 -49.773438 27.609375 -50.15625 25.109375 -50.15625 C 20.328125 -50.15625 16.726562 -49.226562 14.3125 -47.375 C 11.894531 -45.53125 10.6875 -43.15625 10.6875 -40.25 C 10.6875 -38.0625 11.347656 -36.304688 12.671875 -34.984375 C 13.992188 -33.660156 15.65625 -32.644531 17.65625 -31.9375 C 19.664062 -31.238281 22.359375 -30.472656 25.734375 -29.640625 C 29.742188 -28.648438 32.984375 -27.671875 35.453125 -26.703125 C 37.921875 -25.742188 40.007812 -24.289062 41.71875 -22.34375 C 43.4375 -20.394531 44.296875 -17.757812 44.296875 -14.4375 C 44.296875 -11.675781 43.554688 -9.164062 42.078125 -6.90625 C 40.597656 -4.644531 38.320312 -2.847656 35.25 -1.515625 C 32.1875 -0.191406 28.421875 0.46875 23.953125 0.46875 Z M 23.953125 0.46875 "/></g></g></g><g fill="#c13f39" fill-opacity="1"><g transform="translate(588.074848, 419.761922)"><g><path d="M 23.953125 0.46875 C 19.890625 0.46875 16 -0.179688 12.28125 -1.484375 C 8.5625 -2.785156 5.691406 -4.5 3.671875 -6.625 L 5.921875 -11.078125 C 7.898438 -9.097656 10.523438 -7.5 13.796875 -6.28125 C 17.078125 -5.0625 20.460938 -4.453125 23.953125 -4.453125 C 28.835938 -4.453125 32.5 -5.347656 34.9375 -7.140625 C 37.382812 -8.929688 38.609375 -11.257812 38.609375 -14.125 C 38.609375 -16.300781 37.941406 -18.039062 36.609375 -19.34375 C 35.285156 -20.644531 33.660156 -21.644531 31.734375 -22.34375 C 29.816406 -23.050781 27.144531 -23.816406 23.71875 -24.640625 C 19.601562 -25.679688 16.320312 -26.679688 13.875 -27.640625 C 11.4375 -28.609375 9.34375 -30.078125 7.59375 -32.046875 C 5.851562 -34.023438 4.984375 -36.707031 4.984375 -40.09375 C 4.984375 -42.84375 5.710938 -45.347656 7.171875 -47.609375 C 8.628906 -49.878906 10.863281 -51.6875 13.875 -53.03125 C 16.894531 -54.382812 20.640625 -55.0625 25.109375 -55.0625 C 28.234375 -55.0625 31.289062 -54.632812 34.28125 -53.78125 C 37.269531 -52.925781 39.859375 -51.742188 42.046875 -50.234375 L 40.09375 -45.625 C 37.800781 -47.132812 35.351562 -48.265625 32.75 -49.015625 C 30.15625 -49.773438 27.609375 -50.15625 25.109375 -50.15625 C 20.328125 -50.15625 16.726562 -49.226562 14.3125 -47.375 C 11.894531 -45.53125 10.6875 -43.15625 10.6875 -40.25 C 10.6875 -38.0625 11.347656 -36.304688 12.671875 -34.984375 C 13.992188 -33.660156 15.65625 -32.644531 17.65625 -31.9375 C 19.664062 -31.238281 22.359375 -30.472656 25.734375 -29.640625 C 29.742188 -28.648438 32.984375 -27.671875 35.453125 -26.703125 C 37.921875 -25.742188 40.007812 -24.289062 41.71875 -22.34375 C 43.4375 -20.394531 44.296875 -17.757812 44.296875 -14.4375 C 44.296875 -11.675781 43.554688 -9.164062 42.078125 -6.90625 C 40.597656 -4.644531 38.320312 -2.847656 35.25 -1.515625 C 32.1875 -0.191406 28.421875 0.46875 23.953125 0.46875 Z M 23.953125 0.46875 "/></g></g></g><g fill="#57676c" fill-opacity="1"><g transform="translate(276.53315, 463.537452)"><g><path d="M 9.859375 -18.75 L 9.859375 0 L 7.328125 0 L 7.328125 -18.75 L 0.65625 -18.75 L 0.65625 -20.96875 L 16.53125 -20.96875 L 16.53125 -18.75 Z M 9.859375 -18.75 "/></g></g></g><g fill="#57676c" fill-opacity="1"><g transform="translate(293.715876, 463.537452)"><g><path d="M 2.546875 -22.234375 L 4.953125 -22.234375 L 4.953125 -12.984375 L 5.078125 -12.984375 C 5.460938 -13.859375 6 -14.554688 6.6875 -15.078125 C 7.375 -15.597656 8.300781 -15.859375 9.46875 -15.859375 C 11.070312 -15.859375 12.335938 -15.34375 13.265625 -14.3125 C 14.191406 -13.28125 14.65625 -11.828125 14.65625 -9.953125 L 14.65625 0 L 12.265625 0 L 12.265625 -9.53125 C 12.265625 -12.3125 11.09375 -13.703125 8.75 -13.703125 C 8.257812 -13.703125 7.789062 -13.640625 7.34375 -13.515625 C 6.894531 -13.398438 6.488281 -13.222656 6.125 -12.984375 C 5.769531 -12.742188 5.484375 -12.4375 5.265625 -12.0625 C 5.054688 -11.695312 4.953125 -11.257812 4.953125 -10.75 L 4.953125 0 L 2.546875 0 Z M 2.546875 -22.234375 "/></g></g></g><g fill="#57676c" fill-opacity="1"><g transform="translate(310.77845, 463.537452)"><g><path d="M 8.390625 0.359375 C 7.328125 0.359375 6.367188 0.171875 5.515625 -0.203125 C 4.660156 -0.585938 3.925781 -1.132812 3.3125 -1.84375 C 2.707031 -2.5625 2.238281 -3.414062 1.90625 -4.40625 C 1.570312 -5.394531 1.40625 -6.507812 1.40625 -7.75 C 1.40625 -8.96875 1.570312 -10.078125 1.90625 -11.078125 C 2.238281 -12.085938 2.707031 -12.945312 3.3125 -13.65625 C 3.925781 -14.363281 4.660156 -14.90625 5.515625 -15.28125 C 6.367188 -15.664062 7.328125 -15.859375 8.390625 -15.859375 C 9.429688 -15.859375 10.359375 -15.664062 11.171875 -15.28125 C 11.992188 -14.90625 12.695312 -14.378906 13.28125 -13.703125 C 13.863281 -13.035156 14.304688 -12.242188 14.609375 -11.328125 C 14.921875 -10.410156 15.078125 -9.398438 15.078125 -8.296875 L 15.078125 -7.15625 L 3.9375 -7.15625 L 3.9375 -6.4375 C 3.9375 -5.769531 4.039062 -5.148438 4.25 -4.578125 C 4.457031 -4.003906 4.753906 -3.507812 5.140625 -3.09375 C 5.535156 -2.675781 6.019531 -2.347656 6.59375 -2.109375 C 7.164062 -1.867188 7.8125 -1.75 8.53125 -1.75 C 9.507812 -1.75 10.363281 -1.976562 11.09375 -2.4375 C 11.832031 -2.894531 12.398438 -3.554688 12.796875 -4.421875 L 14.515625 -3.1875 C 14.015625 -2.125 13.234375 -1.265625 12.171875 -0.609375 C 11.109375 0.0351562 9.847656 0.359375 8.390625 0.359375 Z M 8.390625 -13.859375 C 7.722656 -13.859375 7.117188 -13.738281 6.578125 -13.5 C 6.035156 -13.269531 5.566406 -12.945312 5.171875 -12.53125 C 4.785156 -12.113281 4.484375 -11.617188 4.265625 -11.046875 C 4.046875 -10.472656 3.9375 -9.847656 3.9375 -9.171875 L 3.9375 -8.953125 L 12.5 -8.953125 L 12.5 -9.28125 C 12.5 -10.664062 12.125 -11.773438 11.375 -12.609375 C 10.625 -13.441406 9.628906 -13.859375 8.390625 -13.859375 Z M 8.390625 -13.859375 "/></g></g></g><g fill="#57676c" fill-opacity="1"><g transform="translate(327.270272, 463.537452)"><g/></g></g><g fill="#57676c" fill-opacity="1"><g transform="translate(334.359648, 463.537452)"><g><path d="M 8.6875 0.359375 C 6.976562 0.359375 5.523438 0.0351562 4.328125 -0.609375 C 3.128906 -1.265625 2.109375 -2.164062 1.265625 -3.3125 L 3.125 -4.875 C 3.863281 -3.882812 4.679688 -3.132812 5.578125 -2.625 C 6.484375 -2.113281 7.550781 -1.859375 8.78125 -1.859375 C 10.28125 -1.859375 11.425781 -2.21875 12.21875 -2.9375 C 13.007812 -3.664062 13.40625 -4.628906 13.40625 -5.828125 C 13.40625 -6.828125 13.101562 -7.597656 12.5 -8.140625 C 11.894531 -8.679688 10.90625 -9.113281 9.53125 -9.4375 L 7.8125 -9.828125 C 5.882812 -10.265625 4.414062 -10.925781 3.40625 -11.8125 C 2.394531 -12.707031 1.890625 -13.96875 1.890625 -15.59375 C 1.890625 -16.507812 2.0625 -17.328125 2.40625 -18.046875 C 2.75 -18.773438 3.222656 -19.378906 3.828125 -19.859375 C 4.441406 -20.335938 5.171875 -20.703125 6.015625 -20.953125 C 6.867188 -21.203125 7.804688 -21.328125 8.828125 -21.328125 C 10.410156 -21.328125 11.769531 -21.035156 12.90625 -20.453125 C 14.039062 -19.878906 15 -19.03125 15.78125 -17.90625 L 13.875 -16.53125 C 13.300781 -17.332031 12.601562 -17.960938 11.78125 -18.421875 C 10.957031 -18.878906 9.9375 -19.109375 8.71875 -19.109375 C 7.375 -19.109375 6.316406 -18.820312 5.546875 -18.25 C 4.773438 -17.675781 4.390625 -16.820312 4.390625 -15.6875 C 4.390625 -14.6875 4.710938 -13.929688 5.359375 -13.421875 C 6.015625 -12.910156 7.003906 -12.503906 8.328125 -12.203125 L 10.03125 -11.8125 C 12.09375 -11.351562 13.582031 -10.648438 14.5 -9.703125 C 15.425781 -8.765625 15.890625 -7.515625 15.890625 -5.953125 C 15.890625 -4.984375 15.722656 -4.109375 15.390625 -3.328125 C 15.066406 -2.546875 14.59375 -1.882812 13.96875 -1.34375 C 13.351562 -0.8125 12.597656 -0.394531 11.703125 -0.09375 C 10.804688 0.207031 9.800781 0.359375 8.6875 0.359375 Z M 8.6875 0.359375 "/></g></g></g><g fill="#57676c" fill-opacity="1"><g transform="translate(351.812735, 463.537452)"><g><path d="M 12.109375 -15.5 L 14.484375 -15.5 L 7.546875 3.609375 C 7.359375 4.066406 7.175781 4.453125 7 4.765625 C 6.820312 5.078125 6.601562 5.320312 6.34375 5.5 C 6.082031 5.675781 5.753906 5.804688 5.359375 5.890625 C 4.972656 5.972656 4.5 6.015625 3.9375 6.015625 L 2.703125 6.015625 L 2.703125 3.90625 L 5.140625 3.90625 L 6.3125 0.59375 L 0.515625 -15.5 L 2.921875 -15.5 L 6.640625 -4.953125 L 7.359375 -2.4375 L 7.515625 -2.4375 L 8.359375 -4.953125 Z M 12.109375 -15.5 "/></g></g></g><g fill="#57676c" fill-opacity="1"><g transform="translate(366.80257, 463.537452)"><g><path d="M 2.546875 0 L 2.546875 -15.5 L 4.953125 -15.5 L 4.953125 -12.984375 L 5.078125 -12.984375 C 5.253906 -13.378906 5.457031 -13.753906 5.6875 -14.109375 C 5.925781 -14.460938 6.207031 -14.769531 6.53125 -15.03125 C 6.863281 -15.289062 7.25 -15.492188 7.6875 -15.640625 C 8.132812 -15.785156 8.65625 -15.859375 9.25 -15.859375 C 10.269531 -15.859375 11.210938 -15.613281 12.078125 -15.125 C 12.941406 -14.632812 13.582031 -13.828125 14 -12.703125 L 14.0625 -12.703125 C 14.34375 -13.546875 14.867188 -14.28125 15.640625 -14.90625 C 16.410156 -15.539062 17.457031 -15.859375 18.78125 -15.859375 C 20.363281 -15.859375 21.597656 -15.34375 22.484375 -14.3125 C 23.378906 -13.28125 23.828125 -11.828125 23.828125 -9.953125 L 23.828125 0 L 21.421875 0 L 21.421875 -9.53125 C 21.421875 -10.90625 21.148438 -11.941406 20.609375 -12.640625 C 20.066406 -13.347656 19.207031 -13.703125 18.03125 -13.703125 C 17.550781 -13.703125 17.09375 -13.640625 16.65625 -13.515625 C 16.226562 -13.398438 15.84375 -13.222656 15.5 -12.984375 C 15.164062 -12.742188 14.894531 -12.4375 14.6875 -12.0625 C 14.488281 -11.695312 14.390625 -11.257812 14.390625 -10.75 L 14.390625 0 L 11.984375 0 L 11.984375 -9.53125 C 11.984375 -10.90625 11.710938 -11.941406 11.171875 -12.640625 C 10.628906 -13.347656 9.789062 -13.703125 8.65625 -13.703125 C 8.175781 -13.703125 7.710938 -13.640625 7.265625 -13.515625 C 6.828125 -13.398438 6.4375 -13.222656 6.09375 -12.984375 C 5.757812 -12.742188 5.484375 -12.4375 5.265625 -12.0625 C 5.054688 -11.695312 4.953125 -11.257812 4.953125 -10.75 L 4.953125 0 Z M 2.546875 0 "/></g></g></g><g fill="#57676c" fill-opacity="1"><g transform="translate(393.027259, 463.537452)"><g><path d="M 2.546875 -22.234375 L 4.953125 -22.234375 L 4.953125 -12.984375 L 5.078125 -12.984375 C 5.472656 -13.960938 6.054688 -14.6875 6.828125 -15.15625 C 7.609375 -15.625 8.535156 -15.859375 9.609375 -15.859375 C 10.578125 -15.859375 11.453125 -15.664062 12.234375 -15.28125 C 13.015625 -14.90625 13.675781 -14.367188 14.21875 -13.671875 C 14.769531 -12.972656 15.191406 -12.117188 15.484375 -11.109375 C 15.773438 -10.109375 15.921875 -8.988281 15.921875 -7.75 C 15.921875 -6.507812 15.773438 -5.390625 15.484375 -4.390625 C 15.191406 -3.390625 14.769531 -2.535156 14.21875 -1.828125 C 13.675781 -1.128906 13.015625 -0.585938 12.234375 -0.203125 C 11.453125 0.171875 10.578125 0.359375 9.609375 0.359375 C 7.503906 0.359375 5.992188 -0.601562 5.078125 -2.53125 L 4.953125 -2.53125 L 4.953125 0 L 2.546875 0 Z M 8.953125 -1.796875 C 10.316406 -1.796875 11.390625 -2.222656 12.171875 -3.078125 C 12.953125 -3.929688 13.34375 -5.050781 13.34375 -6.4375 L 13.34375 -9.078125 C 13.34375 -10.453125 12.953125 -11.566406 12.171875 -12.421875 C 11.390625 -13.273438 10.316406 -13.703125 8.953125 -13.703125 C 8.410156 -13.703125 7.894531 -13.625 7.40625 -13.46875 C 6.914062 -13.320312 6.488281 -13.117188 6.125 -12.859375 C 5.769531 -12.597656 5.484375 -12.28125 5.265625 -11.90625 C 5.054688 -11.539062 4.953125 -11.148438 4.953125 -10.734375 L 4.953125 -4.953125 C 4.953125 -4.453125 5.054688 -4.003906 5.265625 -3.609375 C 5.484375 -3.222656 5.769531 -2.894531 6.125 -2.625 C 6.488281 -2.351562 6.914062 -2.144531 7.40625 -2 C 7.894531 -1.863281 8.410156 -1.796875 8.953125 -1.796875 Z M 8.953125 -1.796875 "/></g></g></g><g fill="#57676c" fill-opacity="1"><g transform="translate(410.450314, 463.537452)"><g><path d="M 8.40625 0.359375 C 7.363281 0.359375 6.410156 0.171875 5.546875 -0.203125 C 4.691406 -0.585938 3.957031 -1.132812 3.34375 -1.84375 C 2.738281 -2.5625 2.265625 -3.414062 1.921875 -4.40625 C 1.578125 -5.394531 1.40625 -6.507812 1.40625 -7.75 C 1.40625 -8.96875 1.578125 -10.078125 1.921875 -11.078125 C 2.265625 -12.085938 2.738281 -12.945312 3.34375 -13.65625 C 3.957031 -14.363281 4.691406 -14.90625 5.546875 -15.28125 C 6.410156 -15.664062 7.363281 -15.859375 8.40625 -15.859375 C 9.445312 -15.859375 10.394531 -15.664062 11.25 -15.28125 C 12.101562 -14.90625 12.835938 -14.363281 13.453125 -13.65625 C 14.078125 -12.945312 14.5625 -12.085938 14.90625 -11.078125 C 15.25 -10.078125 15.421875 -8.96875 15.421875 -7.75 C 15.421875 -6.507812 15.25 -5.394531 14.90625 -4.40625 C 14.5625 -3.414062 14.078125 -2.5625 13.453125 -1.84375 C 12.835938 -1.132812 12.101562 -0.585938 11.25 -0.203125 C 10.394531 0.171875 9.445312 0.359375 8.40625 0.359375 Z M 8.40625 -1.765625 C 9.707031 -1.765625 10.769531 -2.164062 11.59375 -2.96875 C 12.414062 -3.769531 12.828125 -4.992188 12.828125 -6.640625 L 12.828125 -8.859375 C 12.828125 -10.503906 12.414062 -11.726562 11.59375 -12.53125 C 10.769531 -13.332031 9.707031 -13.734375 8.40625 -13.734375 C 7.101562 -13.734375 6.039062 -13.332031 5.21875 -12.53125 C 4.40625 -11.726562 4 -10.503906 4 -8.859375 L 4 -6.640625 C 4 -4.992188 4.40625 -3.769531 5.21875 -2.96875 C 6.039062 -2.164062 7.101562 -1.765625 8.40625 -1.765625 Z M 8.40625 -1.765625 "/></g></g></g><g fill="#57676c" fill-opacity="1"><g transform="translate(427.272572, 463.537452)"><g><path d="M 5.109375 0 C 4.265625 0 3.625 -0.234375 3.1875 -0.703125 C 2.757812 -1.171875 2.546875 -1.769531 2.546875 -2.5 L 2.546875 -22.234375 L 4.953125 -22.234375 L 4.953125 -2.109375 L 7.234375 -2.109375 L 7.234375 0 Z M 5.109375 0 "/></g></g></g><g fill="#57676c" fill-opacity="1"><g transform="translate(435.443378, 463.537452)"><g/></g></g><g fill="#57676c" fill-opacity="1"><g transform="translate(442.532755, 463.537452)"><g><path d="M 8.40625 0.359375 C 7.363281 0.359375 6.410156 0.171875 5.546875 -0.203125 C 4.691406 -0.585938 3.957031 -1.132812 3.34375 -1.84375 C 2.738281 -2.5625 2.265625 -3.414062 1.921875 -4.40625 C 1.578125 -5.394531 1.40625 -6.507812 1.40625 -7.75 C 1.40625 -8.96875 1.578125 -10.078125 1.921875 -11.078125 C 2.265625 -12.085938 2.738281 -12.945312 3.34375 -13.65625 C 3.957031 -14.363281 4.691406 -14.90625 5.546875 -15.28125 C 6.410156 -15.664062 7.363281 -15.859375 8.40625 -15.859375 C 9.445312 -15.859375 10.394531 -15.664062 11.25 -15.28125 C 12.101562 -14.90625 12.835938 -14.363281 13.453125 -13.65625 C 14.078125 -12.945312 14.5625 -12.085938 14.90625 -11.078125 C 15.25 -10.078125 15.421875 -8.96875 15.421875 -7.75 C 15.421875 -6.507812 15.25 -5.394531 14.90625 -4.40625 C 14.5625 -3.414062 14.078125 -2.5625 13.453125 -1.84375 C 12.835938 -1.132812 12.101562 -0.585938 11.25 -0.203125 C 10.394531 0.171875 9.445312 0.359375 8.40625 0.359375 Z M 8.40625 -1.765625 C 9.707031 -1.765625 10.769531 -2.164062 11.59375 -2.96875 C 12.414062 -3.769531 12.828125 -4.992188 12.828125 -6.640625 L 12.828125 -8.859375 C 12.828125 -10.503906 12.414062 -11.726562 11.59375 -12.53125 C 10.769531 -13.332031 9.707031 -13.734375 8.40625 -13.734375 C 7.101562 -13.734375 6.039062 -13.332031 5.21875 -12.53125 C 4.40625 -11.726562 4 -10.503906 4 -8.859375 L 4 -6.640625 C 4 -4.992188 4.40625 -3.769531 5.21875 -2.96875 C 6.039062 -2.164062 7.101562 -1.765625 8.40625 -1.765625 Z M 8.40625 -1.765625 "/></g></g></g><g fill="#57676c" fill-opacity="1"><g transform="translate(459.355013, 463.537452)"><g><path d="M 3.390625 -13.40625 L 0.875 -13.40625 L 0.875 -15.5 L 3.390625 -15.5 L 3.390625 -18.625 C 3.390625 -19.707031 3.671875 -20.578125 4.234375 -21.234375 C 4.796875 -21.898438 5.648438 -22.234375 6.796875 -22.234375 L 9.140625 -22.234375 L 9.140625 -20.125 L 5.796875 -20.125 L 5.796875 -15.5 L 9.140625 -15.5 L 9.140625 -13.40625 L 5.796875 -13.40625 L 5.796875 0 L 3.390625 0 Z M 3.390625 -13.40625 "/></g></g></g><g fill="#57676c" fill-opacity="1"><g transform="translate(469.087894, 463.537452)"><g/></g></g><g fill="#57676c" fill-opacity="1"><g transform="translate(476.177271, 463.537452)"><g><path d="M 9.859375 -18.75 L 9.859375 0 L 7.328125 0 L 7.328125 -18.75 L 0.65625 -18.75 L 0.65625 -20.96875 L 16.53125 -20.96875 L 16.53125 -18.75 Z M 9.859375 -18.75 "/></g></g></g><g fill="#57676c" fill-opacity="1"><g transform="translate(493.359996, 463.537452)"><g><path d="M 2.546875 0 L 2.546875 -15.5 L 4.953125 -15.5 L 4.953125 -12.65625 L 5.109375 -12.65625 C 5.390625 -13.394531 5.890625 -14.050781 6.609375 -14.625 C 7.328125 -15.207031 8.316406 -15.5 9.578125 -15.5 L 10.515625 -15.5 L 10.515625 -13.09375 L 9.109375 -13.09375 C 7.804688 -13.09375 6.785156 -12.847656 6.046875 -12.359375 C 5.316406 -11.867188 4.953125 -11.253906 4.953125 -10.515625 L 4.953125 0 Z M 2.546875 0 "/></g></g></g><g fill="#57676c" fill-opacity="1"><g transform="translate(504.384579, 463.537452)"><g><path d="M 12.109375 -2.53125 L 11.984375 -2.53125 C 11.828125 -2.164062 11.632812 -1.804688 11.40625 -1.453125 C 11.175781 -1.109375 10.890625 -0.800781 10.546875 -0.53125 C 10.203125 -0.257812 9.789062 -0.046875 9.3125 0.109375 C 8.832031 0.273438 8.269531 0.359375 7.625 0.359375 C 6.03125 0.359375 4.757812 -0.15625 3.8125 -1.1875 C 2.875 -2.21875 2.40625 -3.675781 2.40625 -5.5625 L 2.40625 -15.5 L 4.8125 -15.5 L 4.8125 -5.984375 C 4.8125 -3.191406 5.992188 -1.796875 8.359375 -1.796875 C 8.835938 -1.796875 9.300781 -1.851562 9.75 -1.96875 C 10.195312 -2.09375 10.597656 -2.273438 10.953125 -2.515625 C 11.304688 -2.765625 11.585938 -3.070312 11.796875 -3.4375 C 12.003906 -3.8125 12.109375 -4.257812 12.109375 -4.78125 L 12.109375 -15.5 L 14.515625 -15.5 L 14.515625 0 L 12.109375 0 Z M 12.109375 -2.53125 "/></g></g></g><g fill="#57676c" fill-opacity="1"><g transform="translate(521.447153, 463.537452)"><g><path d="M 7.21875 0.359375 C 5.769531 0.359375 4.5625 0.0820312 3.59375 -0.46875 C 2.625 -1.019531 1.785156 -1.753906 1.078125 -2.671875 L 2.796875 -4.0625 C 3.398438 -3.300781 4.070312 -2.710938 4.8125 -2.296875 C 5.550781 -1.890625 6.410156 -1.6875 7.390625 -1.6875 C 8.410156 -1.6875 9.207031 -1.90625 9.78125 -2.34375 C 10.351562 -2.78125 10.640625 -3.398438 10.640625 -4.203125 C 10.640625 -4.804688 10.441406 -5.320312 10.046875 -5.75 C 9.660156 -6.1875 8.957031 -6.484375 7.9375 -6.640625 L 6.703125 -6.828125 C 5.984375 -6.921875 5.320312 -7.070312 4.71875 -7.28125 C 4.113281 -7.5 3.585938 -7.78125 3.140625 -8.125 C 2.691406 -8.476562 2.34375 -8.914062 2.09375 -9.4375 C 1.84375 -9.957031 1.71875 -10.578125 1.71875 -11.296875 C 1.71875 -12.054688 1.851562 -12.722656 2.125 -13.296875 C 2.40625 -13.867188 2.789062 -14.34375 3.28125 -14.71875 C 3.78125 -15.101562 4.367188 -15.390625 5.046875 -15.578125 C 5.722656 -15.765625 6.453125 -15.859375 7.234375 -15.859375 C 8.503906 -15.859375 9.5625 -15.640625 10.40625 -15.203125 C 11.257812 -14.765625 12.007812 -14.15625 12.65625 -13.375 L 11.0625 -11.921875 C 10.71875 -12.410156 10.210938 -12.847656 9.546875 -13.234375 C 8.890625 -13.628906 8.0625 -13.828125 7.0625 -13.828125 C 6.0625 -13.828125 5.304688 -13.609375 4.796875 -13.171875 C 4.285156 -12.742188 4.03125 -12.160156 4.03125 -11.421875 C 4.03125 -10.660156 4.285156 -10.109375 4.796875 -9.765625 C 5.304688 -9.421875 6.039062 -9.171875 7 -9.015625 L 8.203125 -8.828125 C 9.921875 -8.566406 11.140625 -8.070312 11.859375 -7.34375 C 12.585938 -6.613281 12.953125 -5.660156 12.953125 -4.484375 C 12.953125 -2.972656 12.441406 -1.785156 11.421875 -0.921875 C 10.398438 -0.0664062 9 0.359375 7.21875 0.359375 Z M 7.21875 0.359375 "/></g></g></g><g fill="#57676c" fill-opacity="1"><g transform="translate(536.076521, 463.537452)"><g><path d="M 5.984375 0 C 5.140625 0 4.5 -0.234375 4.0625 -0.703125 C 3.632812 -1.171875 3.421875 -1.785156 3.421875 -2.546875 L 3.421875 -13.40625 L 0.875 -13.40625 L 0.875 -15.5 L 2.3125 -15.5 C 2.832031 -15.5 3.1875 -15.601562 3.375 -15.8125 C 3.570312 -16.03125 3.671875 -16.398438 3.671875 -16.921875 L 3.671875 -19.796875 L 5.828125 -19.796875 L 5.828125 -15.5 L 9.21875 -15.5 L 9.21875 -13.40625 L 5.828125 -13.40625 L 5.828125 -2.109375 L 8.984375 -2.109375 L 8.984375 0 Z M 5.984375 0 "/></g></g></g></svg>